<mxfile host="app.diagrams.net" modified="2024-05-03T15:31:21.724Z" agent="Mozilla/5.0 (Windows NT 10.0; Win64; x64) AppleWebKit/537.36 (KHTML, like Gecko) Chrome/124.0.0.0 Safari/537.36" version="24.2.8" etag="Qam6rRud7q04wxxdipHg" type="github">
  <diagram name="第 1 页" id="xWAzBhjuG7q_b00NeTvs">
    <mxGraphModel>
      <root>
        <mxCell id="0" />
        <mxCell id="1" parent="0" />
      </root>
    </mxGraphModel>
  </diagram>
</mxfile>
